<svg width="512" height="512" viewBox="0 0 512 512" xmlns="http://www.w3.org/2000/svg">
  <!-- Background -->
  <rect width="512" height="512" fill="#1E88E5"/>
  
  <!-- Main Circle -->
  <circle cx="256" cy="220" r="120" fill="none" stroke="#FFFFFF" stroke-width="8"/>
  
  <!-- Crescent Moon -->
  <path d="M 220 180 Q 200 220 220 260 Q 240 220 220 180" fill="#FFFFFF"/>
  
  <!-- Star -->
  <path d="M 300 200 L 306 216 L 322 216 L 308 226 L 314 242 L 300 232 L 286 242 L 292 226 L 278 216 L 294 216 Z" fill="#FFFFFF"/>
  
  <!-- Mosque Silhouette -->
  <g transform="translate(256, 320)">
    <!-- Dome -->
    <ellipse cx="0" cy="-20" rx="40" ry="30" fill="#FFFFFF"/>
    <!-- Minaret -->
    <rect x="-50" y="-40" width="8" height="60" fill="#FFFFFF"/>
    <rect x="42" y="-40" width="8" height="60" fill="#FFFFFF"/>
    <!-- Base -->
    <rect x="-60" y="20" width="120" height="40" fill="#FFFFFF"/>
  </g>
  
  <!-- Decorative Elements -->
  <circle cx="100" cy="100" r="3" fill="#FFFFFF" opacity="0.6"/>
  <circle cx="412" cy="100" r="3" fill="#FFFFFF" opacity="0.6"/>
  <circle cx="100" cy="412" r="3" fill="#FFFFFF" opacity="0.6"/>
  <circle cx="412" cy="412" r="3" fill="#FFFFFF" opacity="0.6"/>
</svg>
